<?xml version="1.0" encoding="UTF-8" standalone="no"?>
<svg
   xmlns:dc="http://purl.org/dc/elements/1.1/"
   xmlns:cc="http://creativecommons.org/ns#"
   xmlns:rdf="http://www.w3.org/1999/02/22-rdf-syntax-ns#"
   xmlns:svg="http://www.w3.org/2000/svg"
   xmlns="http://www.w3.org/2000/svg"
   xmlns:sodipodi="http://sodipodi.sourceforge.net/DTD/sodipodi-0.dtd"
   xmlns:inkscape="http://www.inkscape.org/namespaces/inkscape"
   version="1.1"
   viewBox="0 0 630 630"
   id="svg3899"
   inkscape:version="0.48.4 r9939"
   width="100%"
   height="100%"
   sodipodi:docname="Logo.svg"
   inkscape:export-filename="/home/madx/Code/Perso/MarseilleJS/Identite/Logo.png"
   inkscape:export-xdpi="90"
   inkscape:export-ydpi="90">
  <metadata
     id="metadata3909">
    <rdf:RDF>
      <cc:Work
         rdf:about="">
        <dc:format>image/svg+xml</dc:format>
        <dc:type
           rdf:resource="http://purl.org/dc/dcmitype/StillImage" />
        <dc:title />
      </cc:Work>
    </rdf:RDF>
  </metadata>
  <defs
     id="defs3907" />
  <sodipodi:namedview
     pagecolor="#ffffff"
     bordercolor="#666666"
     borderopacity="1"
     objecttolerance="10"
     gridtolerance="10"
     guidetolerance="10"
     inkscape:pageopacity="0"
     inkscape:pageshadow="2"
     inkscape:window-width="1280"
     inkscape:window-height="749"
     id="namedview3905"
     showgrid="false"
     inkscape:zoom="0.0625"
     inkscape:cx="955.35581"
     inkscape:cy="-320.18649"
     inkscape:window-x="0"
     inkscape:window-y="25"
     inkscape:window-maximized="1"
     inkscape:current-layer="svg3899" />
  <!--
  DO WHAT THE FUCK YOU WANT TO PUBLIC LICENSE
  Version 2, December 2004

  Copyright (C) 2011 Christopher Williams <chris@iterativedesigns.com>,
                     Manuel Strehl <boldewyn@gmail.com>

  Everyone is permitted to copy and distribute verbatim or modified
  copies of this license document, and changing it is allowed as long
  as the name is changed.

  DO WHAT THE FUCK YOU WANT TO PUBLIC LICENSE
  TERMS AND CONDITIONS FOR COPYING, DISTRIBUTION AND MODIFICATION

  0. You just DO WHAT THE FUCK YOU WANT TO.
-->
  <rect
     style="fill:#f7df49;fill-opacity:1"
     height="630"
     width="630"
     y="0"
     x="0"
     id="background" />
  <path
     style="fill:#009dcc;fill-opacity:1"
     d="m 0.05212266,572.35887 0.051975,-57.64348 1.62666004,-1.7152 c 3.1539867,-3.3257 6.3896175,-4.998 9.6702343,-4.998 1.824057,0 3.494324,-0.3896 3.711704,-0.8659 0.464901,-1.0185 4.099882,-0.2851 5.383202,1.0862 0.489934,0.5236 1.320589,0.5922 1.845871,0.1527 1.420847,-1.1891 5.205572,-0.4112 6.679565,1.3728 0.710837,0.8603 1.292435,1.2806 1.292435,0.934 0,-0.3467 0.819079,-0.2086 1.820178,0.3068 2.200669,1.1329 3.190931,-0.3442 1.63928,-2.4452 -1.768627,-2.3948 -2.270756,-8.4525 -0.873869,-10.5425 0.848787,-1.2699 0.956694,-2.0067 0.366286,-2.5008 -0.460333,-0.3852 -0.653556,-1.3477 -0.429345,-2.1388 0.224201,-0.7911 0.01024,-2.3001 -0.475591,-3.3533 -1.269844,-2.7533 -0.210351,-3.5561 3.109414,-2.3563 l 2.89422,1.046 -0.294604,-4.0098 c -0.351274,-4.7811 0.626417,-7.6859 2.586967,-7.6859 0.785738,0 2.61201,-0.9 4.058392,-2 3.483299,-2.6491 6.796341,-2.5889 8.436221,0.1532 l 1.287671,2.1532 2.154088,-2.0802 c 1.761903,-1.7014 2.860013,-1.9793 6.031374,-1.526 2.132511,0.3049 3.877286,0.947 3.877286,1.427 0,0.48 0.539201,0.8728 1.198221,0.8728 0.981352,0 1.031821,0.2715 0.278834,1.5 -0.617952,1.0082 -0.652218,1.5 -0.104502,1.5 0.448196,0 1.023416,1.125 1.27829,2.5 0.254874,1.375 0.755793,2.5 1.113161,2.5 0.357367,0 0.60102,0.7875 0.541455,1.75 -0.218334,3.5276 0.147725,5.3338 1.048881,5.1754 3.107495,-0.5464 3.817751,1.967 1.245274,4.4068 -1.451343,1.3765 -1.384622,1.4636 1.395696,1.8226 l 2.919912,0.3771 0.428853,-5.016 c 0.235876,-2.7587 0.630975,-9.9659 0.877994,-16.0159 0.247029,-6.05 0.568181,-11.5253 0.713672,-12.1672 0.14549,-0.642 -0.21299,-1.4154 -0.796625,-1.7187 -1.567805,-0.8146 -1.288282,-3.7209 0.415888,-4.3244 0.908125,-0.3215 1.477065,-1.364 1.477065,-2.7063 0,-3.0529 1.374916,-4.5834 4.117306,-4.5834 1.958601,0 2.417556,-0.453 2.786371,-2.75 0.758816,-4.7261 1.588939,-5.5697 5.584665,-5.6754 l 3.759318,-0.1 0,3.2624 c 0,1.7944 0.249254,3.2586 0.553898,3.2538 0.304635,-0.01 4.708126,-0.6759 9.785526,-1.4913 5.07739,-0.8154 9.31471,-1.4865 9.41625,-1.4913 0.10155,0 0.18463,-1.3036 0.18463,-2.8863 0,-3.2261 0.92293,-4.5483 3.83067,-5.4877 1.57086,-0.5075 2.03253,-1.3111 2.21559,-3.8561 0.20182,-2.8059 0.58573,-3.3278 3.01674,-4.1013 3.16705,-1.0076 4.96907,0.2885 4.96907,3.574 0,1.9249 0.30742,1.9771 7.56993,1.2854 6.0408,-0.5753 7.83682,-1.1063 8.89114,-2.6288 1.55933,-2.2518 4.09424,-2.5074 4.67135,-0.471 0.30072,1.0611 1.40397,1.3436 4.2189,1.08 2.09642,-0.1963 4.23535,0.1192 4.75316,0.7011 0.67683,0.7606 1.30088,0.6403 2.22006,-0.428 0.70321,-0.8173 1.86017,-1.7653 2.57099,-2.1066 1.05015,-0.5043 1.28641,-1.7982 1.26027,-6.902 -0.0176,-3.4548 -0.30225,-8.1706 -0.63236,-10.4796 -0.46985,-3.2864 -0.36821,-4.3187 0.46807,-4.7532 0.58755,-0.3053 1.36794,-0.3043 1.73418,0 0.36625,0.3065 2.66615,-0.2027 5.1109,-1.1315 3.60418,-1.3694 4.28671,-1.947 3.6082,-3.054 -0.61486,-1.003 -0.61693,-1.3651 -0.008,-1.3651 0.45592,0 0.82896,-0.8457 0.82896,-1.8794 0,-1.6568 0.62226,-1.8873 5.25315,-1.9463 2.88923,-0.037 5.44415,-0.3256 5.6776,-0.6417 0.23345,-0.3161 0.56819,-3.2652 0.74385,-6.55365 0.17568,-3.28842 0.57897,-5.97895 0.89622,-5.97895 0.31725,0 1.31586,-1.6875 2.21913,-3.75 2.03327,-4.6427 2.73553,-20.39907 0.99628,-22.35355 -1.35717,-1.52515 -1.29093,-4.53943 0.11584,-5.27038 1.58012,-0.82102 1.48584,-22.48011 -0.10144,-23.30485 -1.65583,-0.86036 -1.18952,-3.32019 0.63166,-3.332 0.91392,-0.006 2.99104,-1.72557 4.61581,-3.82144 8.29306,-10.69761 13.78966,-16.34942 16.05337,-16.50671 1.98875,-0.13817 2.41586,-0.65861 3.00455,-3.66107 0.58722,-2.99502 0.35024,-16.91871 -0.49358,-29 -0.2949,-4.22225 0.10965,-6 1.36539,-6 1.10697,0 2.17599,-3.27696 3.73354,-11.4447 2.11938,-11.11402 7.2562,-20.08325 13.44786,-23.48085 1.32012,-0.7244 2.40022,-1.90717 2.40022,-2.62838 0,-0.72121 0.62084,-1.57811 1.37966,-1.90421 2.33324,-1.00273 3.78747,-4.01809 4.16246,-8.63095 0.19721,-2.426 0.56465,-6.62912 0.81652,-9.34027 0.36825,-3.96404 0.21269,-5.17216 -0.79438,-6.16927 -1.16938,-1.15779 -1.15965,-1.3654 0.14694,-3.13456 1.37332,-1.85953 1.41419,-1.85177 2.20549,0.4186 0.46734,1.34089 0.52511,2.5485 0.13743,2.87293 -0.8487,0.71023 -0.88265,11.14468 -0.0386,11.85105 0.34665,0.29009 0.53038,2.96515 0.40831,5.94459 -0.21662,5.28694 -0.16964,5.43133 1.9546,6.00659 1.28615,0.3483 2.17655,1.22341 2.17655,2.13918 0,0.85236 0.886,2.00587 1.96889,2.56335 1.08289,0.55748 2.53431,1.89634 3.22538,2.97525 0.69107,1.07891 1.54984,1.9759 1.90839,1.99332 0.89365,0.0434 6.51012,11.55779 8.03292,16.46833 0.68223,2.2 1.2499,6.12549 1.26146,8.72332 0.0206,4.60841 1.26708,7.56346 2.68871,6.37378 1.20841,-1.01126 2.13317,1.79144 1.78268,5.4029 -0.18683,1.925 -0.42395,4.85 -0.52696,6.5 -0.10299,1.65 -0.44016,4.53764 -0.74924,6.41699 -0.3091,1.87934 -0.56025,7.14345 -0.55814,11.69803 0.003,6.8001 -0.21264,8.37313 -1.20666,8.79592 -1.2579,0.53502 3.96963,0.10506 12.75076,-1.04874 4.24677,-0.55801 5.00901,-0.43535 4.56104,0.73391 -0.29583,0.77214 -0.0748,0.64176 0.49105,-0.28974 0.72113,-1.18702 2.64534,-1.86791 6.43274,-2.27625 2.9721,-0.32044 6.77105,-0.98023 8.44211,-1.4662 1.67106,-0.48597 5.19849,-1.18672 7.83873,-1.55721 2.64025,-0.3705 6.67629,-1.31107 8.96897,-2.09017 2.29267,-0.7791 5.20064,-1.41654 6.46213,-1.41654 2.13698,0 2.29363,-0.24352 2.29363,-3.56574 0,-1.96116 -0.33324,-4.40885 -0.74053,-5.43931 -0.49502,-1.25242 -0.49502,-2.07903 0,-2.49328 0.99424,-0.83203 0.94883,-17.10612 -0.0548,-19.64541 -0.6041,-1.52842 -0.50788,-2.83251 0.40021,-5.42367 1.20543,-3.43962 1.20806,-3.67619 0.50395,-45.24693 -0.0412,-2.42756 -0.78482,-4.30048 -2.77954,-7 -2.10152,-2.84408 -2.44816,-3.75862 -1.51804,-4.00517 1.59119,-0.42177 3.02994,-7.50683 2.03538,-10.02312 -0.45855,-1.16012 -0.47152,-2.20314 -0.0348,-2.7945 0.43675,-0.59137 0.42384,-2.23234 -0.0345,-4.3966 -1.09348,-5.16257 -0.90339,-6.66752 0.9303,-7.36562 1.51652,-0.57735 1.54879,-0.72292 0.36927,-1.66632 -0.71084,-0.56854 -1.29243,-1.70047 -1.29243,-2.5154 0,-0.81494 -0.49851,-1.74072 -1.10779,-2.0573 -1.91408,-0.99455 -1.23134,-2.62043 0.80916,-1.92698 1.1533,0.39194 2.378,0.13635 3.07423,-0.64159 0.917,-1.02461 1.22176,-1.03355 1.46796,-0.0431 0.17089,0.6875 0.77518,1.25 1.34289,1.25 1.37621,0 2.06578,4.10092 1.61008,9.57531 -0.20403,2.45096 -0.0627,4.71424 0.31403,5.02952 0.40799,0.34142 0.36816,1.09014 -0.0985,1.85152 -1.04701,1.70822 0.79576,3.82098 2.54152,2.91389 1.02269,-0.53138 1.18859,-1.42504 0.82932,-4.46723 l -0.44912,-3.80297 4.24937,-0.30002 c 4.65239,-0.32847 4.31355,0.3166 3.83451,-7.30002 -0.0345,-0.55 0.49785,-3.025 1.18321,-5.5 1.46346,-5.28497 2.3943,-25.77958 1.29202,-28.44661 -1.0778,-2.60777 -0.29938,-6.15359 1.66311,-7.57573 2.35398,-1.70584 4.24037,-8.34084 3.67031,-12.90959 -0.28411,-2.27703 -0.0242,-4.96939 0.70895,-7.34548 1.70376,-5.52131 2.28346,-29.258815 0.92126,-37.722585 -1.12313,-6.97831 -0.73209,-10.25325 1.79105,-15 0.73089,-1.375 1.49342,-5.00791 1.69453,-8.07313 0.20111,-3.06521 0.68796,-6.66521 1.0819,-8 l 0.71621,-2.42683 0.16316,2.5 c 0.0897,1.375 0.15696,2.9875 0.14938,3.58333 -0.008,0.59584 0.43859,1.08334 0.99145,1.08334 0.55287,0 1.00522,-0.375 1.00522,-0.83334 0,-0.45833 0.29743,-0.83333 0.66096,-0.83333 0.91537,0 1.44736,8.00373 0.71453,10.75 -0.58413,2.18903 0.31227,3.21543 1.16898,1.3385 0.4456,-0.97628 4.84084,0.86119 4.84084,2.02375 0,0.37057 -0.49851,0.93279 -1.1078,1.24938 -0.60929,0.31658 -1.10779,1.22259 -1.10779,2.01337 0,2.17796 2.82767,0.79341 3.09725,-1.51655 0.31052,-2.66085 1.70319,-2.37755 1.70319,0.34647 0,1.52662 -0.56679,2.38608 -1.84245,2.79384 -1.76884,0.5654 -3.12303,4.00124 -1.57702,4.00124 0.77856,0 0.68075,5.37146 -0.14567,8 -0.2594,0.825 -0.0404,4.27783 0.48672,7.67296 0.68902,4.4382 0.76497,7.95101 0.27025,12.499995 -0.99844,9.18089 -1.04022,9.31189 -2.46058,7.71574 -1.07719,-1.2105 -1.15206,-0.77312 -0.79375,4.63737 0.21758,3.28566 0.49327,6.42393 0.61262,6.97393 0.11936,0.55 -0.0668,3.025 -0.41382,5.5 -0.34695,2.475 -0.582,4.8375 -0.52232,5.25 0.0597,0.4125 -0.26452,0.75 -0.72044,0.75 -1.7744,0 1.07553,3.01281 3.78407,4.00036 2.17012,0.79124 2.86676,1.60758 3.1631,3.70657 0.20902,1.48051 0.0926,3.71551 -0.25872,4.96667 -0.35131,1.25115 -0.55409,8.62798 -0.45061,16.39294 0.16174,12.13731 0.36607,14.25296 1.45642,15.07918 0.91612,0.6942 1.08243,1.43216 0.59893,2.65767 -0.65115,1.65051 -1.05425,5.90161 -0.89572,9.44661 0.0558,1.24934 0.70469,1.75 2.26786,1.75 1.43375,0 2.46248,0.6904 2.98011,2 0.49757,1.25889 1.53344,1.99088 2.79546,1.9754 2.64579,-0.0325 4.61957,-5.04075 3.74667,-9.50686 -0.78626,-4.0229 0.25129,-9.00992 1.83701,-8.82965 0.67196,0.0764 1.22174,-0.48611 1.22174,-1.25 0,-0.76389 0.49851,-1.38889 1.1078,-1.38889 0.60929,0 1.10779,0.48575 1.10779,1.07946 0,0.67578 0.81706,0.83646 2.1849,0.42967 l 2.18489,-0.64978 -1.13118,3.07032 c -0.62217,1.68868 -1.60536,3.07033 -2.1849,3.07033 -1.53644,0 -1.28811,1.75977 0.42335,3 1.75956,1.27508 1.86553,3.46779 0.35688,7.38475 -0.83829,2.17651 -0.90563,3.21995 -0.27428,4.25 0.62787,1.02439 0.60271,1.74715 -0.10075,2.89486 -0.71514,1.16678 -0.7413,2.11281 -0.11025,3.98815 0.45501,1.3522 0.62688,3.16572 0.38192,4.03005 -0.30166,1.06442 0.0791,1.75721 1.18001,2.14703 1.56895,0.55554 1.53508,0.70104 -0.97536,4.19034 -1.9914,2.76787 -2.59474,4.43487 -2.57505,7.11482 0.0141,1.925 -0.35775,8.45 -0.82643,14.5 -1.21206,15.64627 -0.78619,29.26152 0.96959,30.99857 1.22732,1.21421 1.24885,1.54675 0.23769,3.66834 -1.07403,2.25352 -1.28579,6.83987 -1.23886,26.83309 0.009,3.575 -0.18911,10.21455 -0.43888,14.75456 -0.29719,5.40163 -0.17383,8.71192 0.35693,9.57785 0.54699,0.89242 0.58763,2.3782 0.12483,4.56325 -0.77985,3.68186 -0.80543,90.38814 -0.0272,92.09324 0.34575,0.7575 0.80341,0.6184 1.45311,-0.4416 1.14404,-1.8665 2.72168,-2.0116 3.23255,-0.2973 0.28649,0.9613 0.38597,0.9477 0.43081,-0.059 0.0916,-2.0573 1.53537,-0.3008 1.53537,1.868 0,1.0913 0.50401,1.941 1.15138,1.941 0.63326,0 0.94598,-0.45 0.69494,-1 -0.25105,-0.55 -0.12409,-1 0.28209,-1 0.40619,0 0.93644,0.4336 1.17833,0.9635 0.24274,0.5319 1.14451,0.01 2.01278,-1.1663 l 1.573,-2.1299 0.65243,2.3881 c 0.80685,2.9533 1.85437,3.8823 3.80414,3.3739 1.83009,-0.4772 2.76158,1.2985 2.21839,4.2289 -0.37581,2.0275 -0.14899,2.1686 3.34683,2.0818 2.06248,-0.051 3.9748,0.2114 4.2496,0.5835 0.91851,1.2437 2.63518,0.7051 2.2365,-0.7016 -0.44436,-1.568 0.80491,-3.6219 2.20298,-3.6219 0.51509,0 1.40808,1.2187 1.98444,2.7082 0.94502,2.4422 1.4006,2.6843 4.63939,2.4655 5.50739,-0.3719 7.8055,-1.1946 7.39395,-2.6468 -0.36221,-1.2781 0.80644,-3.5269 1.83284,-3.5269 0.29671,0 0.64567,1.0079 0.77546,2.2398 0.34058,3.2323 2.53274,3.4507 3.11485,0.3102 0.5966,-3.2186 1.40175,-3.2337 2.66012,-0.05 1.15185,2.9143 1.87935,3.136 2.82018,0.8596 0.37289,-0.9022 1.05407,-1.3256 1.51375,-0.9409 1.47523,1.2345 0.9026,2.5708 -1.86304,4.3475 l -2.69882,1.7338 5.09905,0.6225 c 2.80447,0.3424 5.24094,0.4502 5.41439,0.2397 0.17344,-0.2106 -0.32087,-1.0127 -1.09847,-1.7826 -1.31842,-1.3054 -1.21511,-1.4522 1.53097,-2.1752 3.66569,-0.9651 10.60161,-0.9341 15.61662,0.07 4.26718,0.8542 3.11839,1.6838 16.35127,-11.8071 4.69794,-4.7895 6.57357,-7.2868 6.27203,-8.3509 -0.64791,-2.2863 1.36429,-3.5009 2.47549,-1.4941 0.85226,1.5391 1.0301,1.4862 2.15008,-0.6393 0.75891,-1.4403 1.65873,-2.0897 2.3777,-1.7161 0.63624,0.3306 1.4326,0.023 1.76974,-0.6828 0.44798,-0.9383 0.73321,-0.6905 1.05956,0.9205 0.43079,2.1265 0.51364,2.145 2.34387,0.5212 1.40077,-1.2428 1.97646,-1.3617 2.19979,-0.4544 0.42584,1.7298 1.70217,1.5265 2.76432,-0.4403 0.82811,-1.5336 1.04472,-1.4874 2.66624,0.5686 1.30144,1.6502 2.31868,2.0895 3.87374,1.6731 1.7735,-0.475 2.03745,-0.2871 1.65991,1.1813 -0.39821,1.5486 -0.34437,1.5694 0.47599,0.1841 0.5087,-0.8591 1.48223,-1.8448 2.16338,-2.1905 1.36354,-0.6921 3.20824,1.6005 2.51321,3.1233 -0.24062,0.5271 -0.0635,1.1271 0.39334,1.3334 0.45693,0.2062 1.45122,6.2071 2.20961,13.3354 0.75832,7.1282 1.91744,18.0663 2.57584,24.3068 1.28268,12.1589 2.37224,16.0518 9.32911,33.3314 2.80302,6.9622 4.68273,10.3996 6.69862,12.25 1.54131,1.4147 3.08498,2.5722 3.43047,2.5722 1.07921,0 1.31983,-8.1677 0.25686,-8.72 -1.18142,-0.6139 -1.26081,-3.28 -0.0976,-3.28 0.5104,0 0.36204,-0.7346 -0.36926,-1.8287 -0.67221,-1.0058 -1.22226,-2.5808 -1.22226,-3.5 0,-0.9731 -0.58396,-1.6713 -1.39804,-1.6713 -0.76889,0 -1.59973,-0.7118 -1.84633,-1.5818 -0.62398,-2.2018 -0.57812,-2.4182 0.51232,-2.4182 1.35868,0 4.93501,-2.3519 4.94188,-3.25 0.0141,-1.8314 1.36738,-0.5091 1.78503,1.7441 0.25427,1.3718 0.70573,2.4435 1.00321,2.3816 1.32492,-0.2757 2.36463,0.2365 3.44229,1.6957 1.59589,2.161 1.45335,3.4286 -0.38566,3.4286 -0.92508,0 -1.70135,0.8034 -1.93244,2 -0.21247,1.1 -0.67981,2 -1.03867,2 -0.35877,0 -0.60714,3.0375 -0.55183,6.75 0.0554,3.7125 0.2446,5.7375 0.42067,4.5 0.3361,-2.3629 1.29154,-2.9416 2.0636,-1.25 0.56571,1.2394 3.32339,1.3294 3.32339,0.1084 0,-0.4904 0.87419,-1.1887 1.9427,-1.5518 1.41495,-0.4808 2.3808,-0.1028 3.55557,1.3916 0.88713,1.1285 1.97144,2.0518 2.40954,2.0518 0.43809,0 0.98786,0.675 1.22168,1.5 0.51379,1.813 3.88657,2.0036 4.42438,0.25 0.26247,-0.8559 0.86881,-0.4976 1.92343,1.1369 0.84701,1.3127 2.61321,3.1127 3.92476,4 1.94965,1.3189 2.3413,2.1147 2.14713,4.3631 -0.22746,2.6335 -0.0993,2.75 3.02428,2.75 2.32386,0 3.64613,0.5751 4.59846,2 0.7352,1.1 2.19919,2.0062 3.25322,2.0137 3.21297,0.023 5.085,1.0762 5.47177,3.0788 0.20258,1.0491 0.98107,1.911 1.72993,1.9153 1.70527,0.01 3.50152,4.80824 2.44513,6.53184 -0.94111,1.5355 -0.22732,4.1157 1.36791,4.9446 0.67611,0.3513 5.22007,0.8522 10.09762,1.1131 4.87754,0.2609 11.94239,0.9661 15.69966,1.5672 L 630,533.25733 630,581.6287 630,630 315.00002,630 0,630 0.051975,572.35657 z"
     id="path3887"
     inkscape:connector-curvature="0" />
  <path
     style="fill:#2e2e2c;fill-opacity:1"
     d="M 479.46875 285.84375 C 426.605 285.84375 392.75 319.69 392.75 364.09375 C 392.75 412.30375 421.0975 435.13125 463.8125 453.3125 L 478.59375 459.65625 C 505.66 471.49375 521.75 478.70125 521.75 499 C 521.75 515.9165 506.09375 528.15625 481.5625 528.15625 C 452.38375 528.15625 435.90875 512.9425 423.21875 492.21875 L 375 520.125 C 392.33625 554.38125 427.8675 580.59375 482.84375 580.59375 C 539.0875 580.59375 580.9375 551.4125 580.9375 498.125 C 580.9375 448.64875 552.60625 426.6625 502.28125 405.09375 L 487.5 398.75 C 462.12875 387.75375 451.125 380.575 451.125 362.8125 C 451.125 348.43625 462.13 337.4375 479.46875 337.4375 C 496.38375 337.4375 507.35 344.63 517.5 362.8125 L 563.59375 333.21875 C 544.1425 298.96375 517.10625 285.84375 479.46875 285.84375 z M 283.625 289.21875 L 283.625 490.53125 C 283.625 520.1315 271.36 527.75 251.90625 527.75 C 231.61125 527.75 223.17625 513.7725 213.875 497.28125 L 165.65625 526.46875 C 179.61125 556.07 207.1075 580.59375 254.46875 580.59375 C 306.91 580.59375 342.84375 552.695 342.84375 491.375 L 342.84375 289.21875 L 283.625 289.21875 z "
     id="j" />
</svg>
